# xmcd
#
# Track frame offsets: 
#        150
#        19659
#        38473
#        62007
#        84669
#
# Disc length: 1509 seconds
#
# Revision: 0
# Processed by: cddbd v1.5.2PL0 Copyright (c) Steve Scherf et al.
# Submitted via: ExactAudioCopy v1.0b3
#
DISCID=3005e305
DTITLE=The Bar-Kays - Grown Folks
DYEAR=2012
DGENRE=R&B
TTITLE0=Grown Folks
TTITLE1=Return of the Mack
TTITLE2=What Goes 'N-Da-Club
TTITLE3=Return of the Mack (Remixx)
TTITLE4=Anticipation (Live)
EXTD=
EXTT0=
EXTT1=
EXTT2=
EXTT3=
EXTT4=
PLAYORDER=
